<?xml version="1.0" encoding="UTF-8" standalone="no"?>
<!-- Created with Inkscape (http://www.inkscape.org/) -->

<svg
   width="618.71674"
   height="99.406326"
   viewBox="0 0 163.70213 26.301258"
   version="1.1"
   id="svg5"
   inkscape:version="1.1 (c68e22c387, 2021-05-23)"
   sodipodi:docname="kolo_logo1.svg"
   xmlns:inkscape="http://www.inkscape.org/namespaces/inkscape"
   xmlns:sodipodi="http://sodipodi.sourceforge.net/DTD/sodipodi-0.dtd"
   xmlns="http://www.w3.org/2000/svg"
   xmlns:svg="http://www.w3.org/2000/svg">
  <sodipodi:namedview
     id="namedview7"
     pagecolor="#006eff"
     bordercolor="#666666"
     borderopacity="1.0"
     inkscape:pageshadow="2"
     inkscape:pageopacity="1"
     inkscape:pagecheckerboard="0"
     inkscape:document-units="mm"
     showgrid="false"
     showguides="true"
     inkscape:guide-bbox="true"
     inkscape:snap-global="true"
     inkscape:snap-bbox="true"
     inkscape:snap-bbox-midpoints="true"
     inkscape:zoom="0.77593294"
     inkscape:cx="324.12595"
     inkscape:cy="-92.147138"
     inkscape:window-width="1920"
     inkscape:window-height="1060"
     inkscape:window-x="0"
     inkscape:window-y="20"
     inkscape:window-maximized="1"
     inkscape:current-layer="layer1"
     units="px">
    <sodipodi:guide
       position="40.157514,19.691943"
       orientation="1,0"
       id="guide42755" />
    <sodipodi:guide
       position="123.54859,12.455753"
       orientation="1,0"
       id="guide42757" />
    <sodipodi:guide
       position="46.97275,-0.45313733"
       orientation="1,0"
       id="guide42964" />
    <sodipodi:guide
       position="116.73335,-0.45313733"
       orientation="1,0"
       id="guide42966" />
  </sodipodi:namedview>
  <defs
     id="defs2" />
  <g
     inkscape:label="Layer 1"
     inkscape:groupmode="layer"
     id="layer1"
     transform="translate(-23.148937,-26.302446)">
    <g
       id="g42649"
       transform="matrix(1.9629713,0,0,1.9629713,-107.92952,-37.992176)">
      <g
         aria-label="KOLO CHANEL"
         id="text1551"
         style="font-size:11.2889px;line-height:1.25;font-family:'Copious Sans';-inkscape-font-specification:'Copious Sans';text-align:center;text-anchor:middle;fill:#ffffff;stroke-width:1.503;stroke-linecap:round;stroke-opacity:0.8">
        <path
           d="m 67.63748,40.926888 h -0.857956 v -8.015119 h 0.857956 z m 3.443115,-8.015119 h 1.072445 l -3.352803,3.973693 3.352803,4.041426 h -1.072445 l -3.262492,-4.041426 z"
           id="path34285" />
        <path
           d="m 80.235882,39.865732 c -0.805275,0.812801 -1.77612,1.219201 -2.912536,1.219201 -1.136416,0 -2.107262,-0.410163 -2.912537,-1.23049 -0.812801,-0.805275 -1.219201,-1.783646 -1.219201,-2.935114 0,-1.158994 0.4064,-2.141128 1.219201,-2.946403 0.797749,-0.812801 1.768595,-1.219201 2.912537,-1.219201 1.158993,0 2.137365,0.4064 2.935114,1.219201 0.797749,0.805275 1.196623,1.794935 1.196623,2.968981 0,1.143941 -0.4064,2.11855 -1.219201,2.923825 z M 79.694015,34.54866 c -0.639705,-0.677334 -1.429928,-1.016001 -2.370669,-1.016001 -1.422401,0 -2.419588,0.662282 -2.991559,1.986846 -0.2032,0.474134 -0.3048,0.940742 -0.3048,1.399824 0,0.459082 0.1016,0.933216 0.3048,1.422401 0.579497,1.309513 1.576683,1.964269 2.991559,1.964269 0.722489,0 1.354668,-0.195674 1.896535,-0.587023 0.526815,-0.376297 0.918164,-0.906875 1.174046,-1.591735 0.150519,-0.383823 0.225778,-0.775171 0.225778,-1.174046 0,-0.948267 -0.308563,-1.749779 -0.92569,-2.404535 z"
           id="path34287"
           sodipodi:nodetypes="cscscscsccscscsccsc" />
        <path
           d="m 83.10326,40.926888 v -8.015119 h 0.857957 v 7.236185 h 4.763916 v 0.778934 z"
           id="path34289" />
        <path
           d="m 97.361146,39.865732 c -0.805275,0.812801 -1.77612,1.219201 -2.912536,1.219201 -1.136416,0 -2.107261,-0.410163 -2.912536,-1.23049 -0.812801,-0.805275 -1.219202,-1.783646 -1.219202,-2.935114 0,-1.158994 0.406401,-2.141128 1.219202,-2.946403 0.797749,-0.812801 1.768594,-1.219201 2.912536,-1.219201 1.158994,0 2.137365,0.4064 2.935114,1.219201 0.797749,0.805275 1.196623,1.794935 1.196623,2.968981 0,1.143941 -0.4064,2.11855 -1.219201,2.923825 z M 96.819279,34.54866 c -0.639705,-0.677334 -1.429928,-1.016001 -2.370669,-1.016001 -1.422401,0 -2.419588,0.662282 -2.991559,1.986846 -0.2032,0.474134 -0.3048,0.940742 -0.3048,1.399824 0,0.459082 0.1016,0.933216 0.3048,1.422401 0.579497,1.309513 1.576684,1.964269 2.991559,1.964269 0.722489,0 1.354668,-0.195674 1.896535,-0.587023 0.526815,-0.376297 0.918164,-0.906875 1.174046,-1.591735 0.150519,-0.383823 0.225778,-0.775171 0.225778,-1.174046 0,-0.948267 -0.308563,-1.749779 -0.92569,-2.404535 z"
           id="path34291"
           sodipodi:nodetypes="cscscscsccscscsccsc" />
        <path
           id="path34293"
           sodipodi:type="inkscape:offset"
           inkscape:radius="0"
           inkscape:original="M 107.35156 32.753906 C 106.77207 32.753906 106.2308 32.863779 105.72656 33.082031 C 105.22232 33.300283 104.78254 33.59636 104.40625 33.972656 C 104.02995 34.348953 103.72773 34.792924 103.50195 35.304688 C 103.2837 35.808925 103.17578 36.347951 103.17578 36.919922 C 103.17578 37.506945 103.2837 38.052403 103.50195 38.556641 C 103.72773 39.060879 104.02995 39.500656 104.40625 39.876953 C 104.78254 40.25325 105.22232 40.553519 105.72656 40.779297 C 106.2308 40.997549 106.77207 41.107422 107.35156 41.107422 C 107.78807 41.107422 108.2066 41.043956 108.60547 40.916016 C 109.01187 40.788074 109.3798 40.606351 109.71094 40.373047 C 110.0496 40.132217 110.34764 39.850958 110.60352 39.527344 C 110.86693 39.203728 111.0741 38.85062 111.22461 38.466797 L 110.26367 38.466797 C 110.12821 38.730205 109.95487 38.977634 109.74414 39.210938 C 109.54094 39.436716 109.31672 39.629065 109.06836 39.787109 C 108.82001 39.937628 108.54937 40.053933 108.25586 40.136719 C 107.96235 40.219504 107.66013 40.261719 107.35156 40.261719 C 106.89248 40.261719 106.46333 40.175049 106.06445 40.001953 C 105.66557 39.828856 105.31666 39.583667 105.01562 39.267578 C 104.71459 38.951489 104.47778 38.594186 104.30469 38.195312 C 104.13911 37.788912 104.05469 37.351374 104.05469 36.884766 C 104.05469 36.43321 104.13911 36.00825 104.30469 35.609375 C 104.47778 35.202975 104.71458 34.845673 105.01562 34.537109 C 105.31666 34.228546 105.66557 33.98755 106.06445 33.814453 C 106.46333 33.633831 106.89248 33.544922 107.35156 33.544922 C 107.6526 33.544922 107.94644 33.589377 108.23242 33.679688 C 108.52593 33.762473 108.79656 33.878778 109.04492 34.029297 C 109.29328 34.17229 109.51946 34.35206 109.72266 34.570312 C 109.92586 34.788564 110.09919 35.023129 110.24219 35.271484 L 111.17969 35.271484 C 111.02164 34.895188 110.81028 34.556897 110.54688 34.255859 C 110.291 33.947296 109.99716 33.683096 109.66602 33.464844 C 109.33487 33.239066 108.96919 33.065727 108.57031 32.945312 C 108.17897 32.817372 107.77302 32.753906 107.35156 32.753906 z "
           d="m 107.35156,32.753906 c -0.57949,0 -1.12076,0.109873 -1.625,0.328125 -0.50424,0.218252 -0.94402,0.514329 -1.32031,0.890625 -0.3763,0.376297 -0.67852,0.820268 -0.9043,1.332032 -0.21825,0.504237 -0.32617,1.043263 -0.32617,1.615234 0,0.587023 0.10792,1.132481 0.32617,1.636719 0.22578,0.504238 0.528,0.944015 0.9043,1.320312 0.37629,0.376297 0.81607,0.676566 1.32031,0.902344 0.50424,0.218252 1.04551,0.328125 1.625,0.328125 0.43651,0 0.85504,-0.06347 1.25391,-0.191406 0.4064,-0.127942 0.77433,-0.309665 1.10547,-0.542969 0.33866,-0.24083 0.6367,-0.522089 0.89258,-0.845703 0.26341,-0.323616 0.47058,-0.676724 0.62109,-1.060547 h -0.96094 c -0.13546,0.263408 -0.3088,0.510837 -0.51953,0.744141 -0.2032,0.225778 -0.42742,0.418127 -0.67578,0.576171 -0.24835,0.150519 -0.51899,0.266824 -0.8125,0.34961 -0.29351,0.08279 -0.59573,0.125 -0.9043,0.125 -0.45908,0 -0.88823,-0.08667 -1.28711,-0.259766 -0.39888,-0.173097 -0.74779,-0.418286 -1.04883,-0.734375 -0.30103,-0.316089 -0.53784,-0.673392 -0.71093,-1.072266 -0.16558,-0.4064 -0.25,-0.843938 -0.25,-1.310546 0,-0.451556 0.0844,-0.876516 0.25,-1.275391 0.17309,-0.4064 0.40989,-0.763702 0.71093,-1.072266 0.30104,-0.308563 0.64995,-0.549559 1.04883,-0.722656 0.39888,-0.180622 0.82803,-0.269531 1.28711,-0.269531 0.30104,0 0.59488,0.04445 0.88086,0.134766 0.29351,0.08279 0.56414,0.19909 0.8125,0.349609 0.24836,0.142993 0.47454,0.322763 0.67774,0.541015 0.2032,0.218252 0.37653,0.452817 0.51953,0.701172 h 0.9375 c -0.15805,-0.376296 -0.36941,-0.714587 -0.63281,-1.015625 -0.25588,-0.308563 -0.54972,-0.572763 -0.88086,-0.791015 -0.33115,-0.225778 -0.69683,-0.399117 -1.09571,-0.519532 -0.39134,-0.12794 -0.79729,-0.191406 -1.21875,-0.191406 z" />
        <path
           d="m 117.96338,40.926888 v -4.075293 l -4.3688,-4e-6 v 4.075297 h -0.85796 v -8.015119 h 0.85796 v 3.115732 l 4.3688,5e-6 v -3.115737 h 0.85796 v 8.015119 z"
           id="path34295"
           sodipodi:nodetypes="ccccccccccccc" />
        <path
           d="m 126.63325,40.926888 -1.33718,-3.177237 h -2.87877 l -1.36076,3.177237 h -0.90312 l 3.28507,-8.00383 h 0.85796 l 3.29636,8.00383 z m -2.78836,-6.87494 -1.15496,2.991553 2.32901,6e-6 z"
           id="path34297"
           sodipodi:nodetypes="ccccccccccccc" />
        <path
           d="m 134.12908,40.926888 -4.41396,-6.829784 v 6.829784 h -0.88053 v -8.015119 h 1.07244 l 4.34623,6.728185 v -6.728185 h 0.88053 v 8.015119 z"
           id="path34299" />
        <path
           d="m 137.07547,40.926888 v -8.015119 h 5.7009 v 0.778934 h -4.82036 v 2.336798 h 3.97369 v 0.869246 h -3.97369 v 3.251207 h 4.82036 v 0.778934 z"
           id="path34301"
           sodipodi:nodetypes="ccccccccccccc" />
        <path
           d="m 144.54873,40.926888 v -8.015119 h 0.85796 v 7.236185 h 4.76392 v 0.778934 z"
           id="path34303" />
        <circle
           style="fill:#ffffff;fill-opacity:1;stroke-width:1.503;stroke-linecap:round;stroke-opacity:0.8"
           id="path93572"
           cx="86.443367"
           cy="36.919327"
           r="0.58807003" />
      </g>
      <g
         aria-label="
Portal anonsów sanitarnych
"
         id="text37124"
         style="font-size:11.2889px;line-height:1.25;font-family:'Copious Sans';-inkscape-font-specification:'Copious Sans';text-align:center;text-anchor:middle;fill:#ffffff;stroke-width:1.503;stroke-linecap:round;stroke-opacity:0.8">
        <path
           d="m 66.775534,45.583976 v -2.351279 h 1.488282 q 0.585667,0.01206 0.706245,0.02756 0.111966,0.0155 0.204983,0.08096 0.09474,0.06373 0.141249,0.160197 0.07579,0.155029 0.07579,0.458198 0,0.237711 -0.04134,0.375515 -0.03962,0.136082 -0.132636,0.215319 -0.09474,0.08096 -0.198093,0.110243 -0.10163,0.02756 -0.316949,0.03445 -0.07752,0.0017 -0.43925,0.0034 h -1.174778 v 0.88539 z m 0.313504,-1.160998 h 1.174778 q 0.430637,-0.0017 0.535713,-0.01378 0.105075,-0.01206 0.177422,-0.07063 0.0534,-0.04479 0.07407,-0.124023 0.02067,-0.08096 0.02067,-0.244602 0,-0.180868 -0.01895,-0.25666 -0.01723,-0.07751 -0.07062,-0.118856 -0.0689,-0.05168 -0.173977,-0.06373 -0.103353,-0.01378 -0.544326,-0.02239 H 67.08904 Z"
           id="path94429" />
        <path
           d="m 70.537581,43.928607 q 0.38585,0 0.568441,0.02412 0.184312,0.02239 0.287665,0.0844 0.15503,0.09302 0.223932,0.265273 0.0689,0.170532 0.0689,0.465088 0,0.327284 -0.08268,0.497817 -0.06029,0.129191 -0.161919,0.201538 -0.09991,0.07235 -0.26355,0.105075 -0.158475,0.03273 -0.5271,0.03273 -0.347955,0 -0.525378,-0.02239 -0.177422,-0.02412 -0.287665,-0.0844 -0.163642,-0.08785 -0.234267,-0.258383 -0.07062,-0.172254 -0.07062,-0.480591 0,-0.344509 0.10163,-0.521932 0.103353,-0.18259 0.285943,-0.244602 0.18259,-0.06201 0.616673,-0.06373 z m 0.04134,0.227376 q -0.25666,0 -0.387574,0.01895 -0.130914,0.01895 -0.208428,0.0689 -0.09129,0.05857 -0.132636,0.186036 -0.04134,0.125746 -0.04134,0.344509 0,0.248047 0.05512,0.372071 0.05512,0.122301 0.18948,0.173977 0.148139,0.05684 0.577054,0.05684 0.279053,0 0.409967,-0.02067 0.132636,-0.02067 0.210151,-0.07751 0.08613,-0.06029 0.122301,-0.180868 0.0379,-0.120578 0.0379,-0.339342 0,-0.258382 -0.05857,-0.37896 -0.06546,-0.134359 -0.218764,-0.179145 -0.151584,-0.04479 -0.55466,-0.04479 z"
           style="font-size:3.52778px;font-family:MicrogrammaDMedExt;-inkscape-font-specification:MicrogrammaDMedExt"
           id="path94431" />
        <path
           d="m 71.932845,43.949277 h 0.258382 v 0.220487 h 0.01723 q 0.06029,-0.110243 0.184312,-0.173978 0.07407,-0.0379 0.194648,-0.05168 0.122301,-0.0155 0.363458,-0.0155 0.241157,0 0.35829,0.02756 0.118856,0.02584 0.203261,0.09646 0.165365,0.142972 0.165365,0.463366 v 0.16881 h -0.265273 v -0.117134 q 0,-0.136081 -0.01895,-0.204983 -0.01723,-0.07062 -0.06373,-0.115411 -0.09819,-0.0913 -0.408244,-0.0913 -0.466811,0 -0.599447,0.122301 -0.130914,0.120579 -0.130914,0.551216 v 0.754476 h -0.258382 z"
           style="font-size:3.52778px;font-family:MicrogrammaDMedExt;-inkscape-font-specification:MicrogrammaDMedExt"
           id="path94433" />
        <path
           d="m 74.156656,43.544478 h 0.258382 v 0.404799 h 1.143772 v 0.220487 h -1.143772 v 0.70969 q 0.0034,0.232544 0.01206,0.28422 0.0086,0.05168 0.04995,0.103353 0.04823,0.06029 0.144694,0.08613 0.09646,0.02412 0.282498,0.02412 0.173977,0 0.253215,-0.02412 0.07924,-0.02412 0.124023,-0.08785 0.02928,-0.04479 0.0379,-0.106798 0.01033,-0.06201 0.01033,-0.210151 v -0.103353 h 0.25666 v 0.103353 q 0,0.187758 -0.01895,0.285943 -0.01723,0.09646 -0.06718,0.170532 -0.07235,0.106798 -0.215319,0.153307 -0.142971,0.04651 -0.401354,0.04651 -0.265272,0 -0.415134,-0.04306 -0.148139,-0.04306 -0.220486,-0.141249 -0.0534,-0.07235 -0.07235,-0.167087 -0.01895,-0.09474 -0.01895,-0.287666 v -0.795817 h -0.401354 v -0.220487 h 0.401354 z"
           style="font-size:3.52778px;font-family:MicrogrammaDMedExt;-inkscape-font-specification:MicrogrammaDMedExt"
           id="path94435" />
        <path
           d="m 76.094523,44.440204 h -0.268718 q -0.0034,-0.04479 -0.0034,-0.07062 0,-0.256659 0.192926,-0.349677 0.192925,-0.09302 0.72347,-0.09302 0.416857,0 0.599447,0.0379 0.18259,0.0379 0.285943,0.144694 0.08613,0.08613 0.111966,0.203261 0.02584,0.117134 0.02584,0.409967 v 0.861274 h -0.25666 l 0.0052,-0.191203 h -0.01378 q -0.09646,0.134359 -0.232544,0.173978 -0.134359,0.0379 -0.509875,0.0379 -0.428915,0 -0.596002,-0.02067 -0.167087,-0.02067 -0.253215,-0.08613 -0.08613,-0.06201 -0.120578,-0.148139 -0.03273,-0.08613 -0.03273,-0.241157 0,-0.189481 0.04995,-0.291111 0.05168,-0.10163 0.172254,-0.151584 0.130914,-0.05684 0.611505,-0.05684 0.502985,0 0.658014,0.03101 0.155029,0.02928 0.239434,0.144695 h 0.02239 v -0.1757 q 0,-0.215319 -0.07751,-0.310059 -0.0689,-0.0844 -0.210151,-0.113688 -0.139527,-0.03101 -0.458198,-0.03101 -0.41858,0 -0.542603,0.04995 -0.122301,0.04823 -0.122301,0.213596 0,0.0086 0,0.02239 z m 0.661459,0.397909 q -0.318672,0 -0.446141,0.01206 -0.127468,0.01034 -0.180867,0.04134 -0.101631,0.06029 -0.101631,0.222208 0,0.160197 0.120579,0.217042 0.09819,0.04651 0.661459,0.04651 0.411689,0 0.544325,-0.0534 0.132636,-0.0534 0.132636,-0.217041 0,-0.158474 -0.148139,-0.213596 -0.148139,-0.05512 -0.582221,-0.05512 z"
           style="font-size:3.52778px;font-family:MicrogrammaDMedExt;-inkscape-font-specification:MicrogrammaDMedExt"
           id="path94437" />
        <path
           d="m 78.044448,43.232697 h 0.258383 v 2.351279 h -0.258383 z"
           style="font-size:3.52778px;font-family:MicrogrammaDMedExt;-inkscape-font-specification:MicrogrammaDMedExt"
           id="path94439" />
        <path
           d="m 79.76183,44.440204 h -0.268718 q -0.0034,-0.04479 -0.0034,-0.07062 0,-0.256659 0.192926,-0.349677 0.192925,-0.09302 0.72347,-0.09302 0.416857,0 0.599447,0.0379 0.18259,0.0379 0.285943,0.144694 0.08613,0.08613 0.111966,0.203261 0.02584,0.117134 0.02584,0.409967 v 0.861274 h -0.25666 l 0.0052,-0.191203 h -0.01378 q -0.09646,0.134359 -0.232545,0.173978 -0.134358,0.0379 -0.509874,0.0379 -0.428915,0 -0.596002,-0.02067 -0.167087,-0.02067 -0.253215,-0.08613 -0.08613,-0.06201 -0.120578,-0.148139 -0.03273,-0.08613 -0.03273,-0.241157 0,-0.189481 0.04995,-0.291111 0.05168,-0.10163 0.172255,-0.151584 0.130914,-0.05684 0.611505,-0.05684 0.502984,0 0.658014,0.03101 0.155029,0.02928 0.239434,0.144695 h 0.02239 v -0.1757 q 0,-0.215319 -0.07751,-0.310059 -0.0689,-0.0844 -0.210151,-0.113688 -0.139527,-0.03101 -0.458198,-0.03101 -0.41858,0 -0.542603,0.04995 -0.122301,0.04823 -0.122301,0.213596 0,0.0086 0,0.02239 z m 0.661459,0.397909 q -0.318672,0 -0.446141,0.01206 -0.127468,0.01034 -0.180867,0.04134 -0.101631,0.06029 -0.101631,0.222208 0,0.160197 0.120579,0.217042 0.09819,0.04651 0.661459,0.04651 0.411689,0 0.544325,-0.0534 0.132636,-0.0534 0.132636,-0.217041 0,-0.158474 -0.148139,-0.213596 -0.148139,-0.05512 -0.582221,-0.05512 z"
           style="font-size:3.52778px;font-family:MicrogrammaDMedExt;-inkscape-font-specification:MicrogrammaDMedExt"
           id="path94441" />
        <path
           d="m 81.699697,43.949277 h 0.258383 v 0.246325 h 0.01895 q 0.08268,-0.156752 0.251492,-0.211874 0.170532,-0.05512 0.573609,-0.05512 0.3514,0 0.520209,0.03962 0.170533,0.0379 0.266995,0.139527 0.07579,0.08096 0.105076,0.203261 0.03101,0.120578 0.03101,0.349677 v 0.923286 h -0.258383 v -0.813043 q 0,-0.218763 -0.01895,-0.313504 -0.01722,-0.09646 -0.07235,-0.161919 -0.06546,-0.07579 -0.201538,-0.106798 -0.134359,-0.03273 -0.403076,-0.03273 -0.299724,0 -0.466811,0.04479 -0.167087,0.04306 -0.251492,0.142971 -0.05857,0.07235 -0.07751,0.163642 -0.01723,0.08957 -0.01723,0.320394 v 0.756199 h -0.258383 z"
           style="font-size:3.52778px;font-family:MicrogrammaDMedExt;-inkscape-font-specification:MicrogrammaDMedExt"
           id="path94443" />
        <path
           d="m 84.96565,43.928607 q 0.385851,0 0.568441,0.02412 0.184313,0.02239 0.287666,0.0844 0.155029,0.09302 0.223931,0.265273 0.0689,0.170532 0.0689,0.465088 0,0.327284 -0.08268,0.497817 -0.06029,0.129191 -0.16192,0.201538 -0.09991,0.07235 -0.26355,0.105075 -0.158474,0.03273 -0.5271,0.03273 -0.347955,0 -0.525377,-0.02239 -0.177423,-0.02412 -0.287666,-0.0844 -0.163642,-0.08785 -0.234266,-0.258383 -0.07062,-0.172254 -0.07062,-0.480591 0,-0.344509 0.101631,-0.521932 0.103352,-0.18259 0.285943,-0.244602 0.18259,-0.06201 0.616672,-0.06373 z m 0.04134,0.227376 q -0.256659,0 -0.387573,0.01895 -0.130914,0.01895 -0.208429,0.0689 -0.0913,0.05857 -0.132636,0.186036 -0.04134,0.125746 -0.04134,0.344509 0,0.248047 0.05512,0.372071 0.05512,0.122301 0.18948,0.173977 0.148139,0.05684 0.577054,0.05684 0.279053,0 0.409966,-0.02067 0.132637,-0.02067 0.210151,-0.07751 0.08613,-0.06029 0.122301,-0.180868 0.0379,-0.120578 0.0379,-0.339342 0,-0.258382 -0.05857,-0.37896 -0.06546,-0.134359 -0.218764,-0.179145 -0.151584,-0.04479 -0.554661,-0.04479 z"
           style="font-size:3.52778px;font-family:MicrogrammaDMedExt;-inkscape-font-specification:MicrogrammaDMedExt"
           id="path94445" />
        <path
           d="m 86.360914,43.949277 h 0.258382 v 0.246325 h 0.01895 q 0.08268,-0.156752 0.251493,-0.211874 0.170532,-0.05512 0.573608,-0.05512 0.3514,0 0.52021,0.03962 0.170532,0.0379 0.266995,0.139527 0.07579,0.08096 0.105076,0.203261 0.031,0.120578 0.031,0.349677 v 0.923286 h -0.258382 v -0.813043 q 0,-0.218763 -0.01895,-0.313504 -0.01722,-0.09646 -0.07235,-0.161919 -0.06546,-0.07579 -0.201538,-0.106798 -0.134359,-0.03273 -0.403077,-0.03273 -0.299723,0 -0.46681,0.04479 -0.167088,0.04306 -0.251492,0.142971 -0.05857,0.07235 -0.07752,0.163642 -0.01723,0.08957 -0.01723,0.320394 v 0.756199 h -0.258382 z"
           style="font-size:3.52778px;font-family:MicrogrammaDMedExt;-inkscape-font-specification:MicrogrammaDMedExt"
           id="path94447" />
        <path
           d="m 88.612286,45.013813 h 0.275607 q 0,0.03445 0,0.04651 0,0.132637 0.02756,0.189481 0.02928,0.05684 0.113688,0.08785 0.111966,0.03962 0.644234,0.03962 0.332452,0 0.461643,-0.01378 0.130913,-0.0155 0.187758,-0.05857 0.07751,-0.05857 0.07751,-0.180867 0,-0.148139 -0.09302,-0.201538 -0.09302,-0.05512 -0.339342,-0.0534 -0.07752,0.0017 -0.745864,-0.0086 -0.173978,-0.0034 -0.279053,-0.02756 -0.103353,-0.02412 -0.172255,-0.07752 -0.130914,-0.10163 -0.130914,-0.342787 0,-0.254937 0.163643,-0.370348 0.08613,-0.06029 0.282498,-0.08613 0.19637,-0.02756 0.564996,-0.02756 0.411689,0 0.606337,0.04479 0.19637,0.04479 0.287665,0.158475 0.04479,0.05512 0.05685,0.117133 0.01378,0.06029 0.01378,0.204983 h -0.272163 q -0.0017,-0.149862 -0.04995,-0.19637 -0.0534,-0.0534 -0.206706,-0.07751 -0.153306,-0.02412 -0.444417,-0.02412 -0.530545,0 -0.644233,0.07407 -0.08268,0.05512 -0.08268,0.186035 0,0.134359 0.09646,0.177423 0.09646,0.04306 0.389296,0.0379 0.289388,-0.0052 0.749309,0.01378 0.279053,0.01033 0.401354,0.122301 0.124023,0.111966 0.124023,0.354845 0,0.146417 -0.04306,0.237712 -0.04306,0.0913 -0.139526,0.149862 -0.0844,0.05168 -0.275608,0.07407 -0.191203,0.02067 -0.552938,0.02067 -0.404799,0 -0.60117,-0.02412 -0.194648,-0.02412 -0.285943,-0.08613 -0.09302,-0.06201 -0.130913,-0.149862 -0.03617,-0.08785 -0.03617,-0.244602 0,-0.02067 0.0017,-0.08613 z"
           style="font-size:3.52778px;font-family:MicrogrammaDMedExt;-inkscape-font-specification:MicrogrammaDMedExt"
           id="path94449" />
        <path
           d="m 91.879961,43.928607 q 0.385851,0 0.568441,0.02412 0.184312,0.02239 0.287665,0.0844 0.15503,0.09302 0.223932,0.265273 0.0689,0.170532 0.0689,0.465088 0,0.327284 -0.08268,0.497817 -0.06029,0.129191 -0.161919,0.201538 -0.09991,0.07235 -0.26355,0.105075 -0.158475,0.03273 -0.5271,0.03273 -0.347955,0 -0.525378,-0.02239 -0.177422,-0.02412 -0.287665,-0.0844 -0.163642,-0.08785 -0.234267,-0.258383 -0.07062,-0.172254 -0.07062,-0.480591 0,-0.344509 0.10163,-0.521932 0.103353,-0.18259 0.285943,-0.244602 0.18259,-0.06201 0.616673,-0.06373 z m 0.04134,0.227376 q -0.25666,0 -0.387574,0.01895 -0.130913,0.01895 -0.208428,0.0689 -0.0913,0.05857 -0.132636,0.186036 -0.04134,0.125746 -0.04134,0.344509 0,0.248047 0.05512,0.372071 0.05512,0.122301 0.18948,0.173977 0.14814,0.05684 0.577054,0.05684 0.279053,0 0.409967,-0.02067 0.132636,-0.02067 0.210151,-0.07751 0.08613,-0.06029 0.122301,-0.180868 0.0379,-0.120578 0.0379,-0.339342 0,-0.258382 -0.05857,-0.37896 -0.06546,-0.134359 -0.218764,-0.179145 -0.151584,-0.04479 -0.55466,-0.04479 z m 0.16881,-1.066257 0.254937,0.218763 -0.44614,0.465088 -0.1757,-0.146416 z"
           style="font-size:3.52778px;font-family:MicrogrammaDMedExt;-inkscape-font-specification:MicrogrammaDMedExt"
           id="path94451" />
        <path
           d="m 93.047849,43.949277 h 0.287666 l 0.63562,1.39871 h 0.02584 l 0.492648,-1.39871 h 0.408245 l 0.497816,1.39871 h 0.02928 l 0.62873,-1.39871 h 0.298001 l -0.757922,1.634699 h -0.384128 l -0.502984,-1.390097 h -0.02412 l -0.497817,1.390097 h -0.380683 z"
           style="font-size:3.52778px;font-family:MicrogrammaDMedExt;-inkscape-font-specification:MicrogrammaDMedExt"
           id="path94453" />
        <path
           d="m 97.283596,45.013813 h 0.275608 q 0,0.03445 0,0.04651 0,0.132637 0.02756,0.189481 0.02928,0.05684 0.113688,0.08785 0.111966,0.03962 0.644233,0.03962 0.332452,0 0.461643,-0.01378 0.130914,-0.0155 0.187758,-0.05857 0.07752,-0.05857 0.07752,-0.180867 0,-0.148139 -0.09302,-0.201538 -0.09302,-0.05512 -0.339342,-0.0534 -0.07751,0.0017 -0.745864,-0.0086 -0.173977,-0.0034 -0.279053,-0.02756 -0.103353,-0.02412 -0.172255,-0.07752 -0.130913,-0.10163 -0.130913,-0.342787 0,-0.254937 0.163642,-0.370348 0.08613,-0.06029 0.282498,-0.08613 0.196371,-0.02756 0.564996,-0.02756 0.411689,0 0.606337,0.04479 0.196371,0.04479 0.287666,0.158475 0.04479,0.05512 0.05684,0.117133 0.01378,0.06029 0.01378,0.204983 h -0.272162 q -0.0017,-0.149862 -0.04995,-0.19637 -0.0534,-0.0534 -0.206706,-0.07751 -0.153307,-0.02412 -0.444418,-0.02412 -0.530545,0 -0.644233,0.07407 -0.08268,0.05512 -0.08268,0.186035 0,0.134359 0.09646,0.177423 0.09646,0.04306 0.389296,0.0379 0.289389,-0.0052 0.749309,0.01378 0.279053,0.01033 0.401354,0.122301 0.124024,0.111966 0.124024,0.354845 0,0.146417 -0.04306,0.237712 -0.04306,0.0913 -0.139527,0.149862 -0.08441,0.05168 -0.275607,0.07407 -0.191203,0.02067 -0.552939,0.02067 -0.404799,0 -0.601169,-0.02412 -0.194648,-0.02412 -0.285943,-0.08613 -0.09302,-0.06201 -0.130914,-0.149862 -0.03617,-0.08785 -0.03617,-0.244602 0,-0.02067 0.0017,-0.08613 z"
           style="font-size:3.52778px;font-family:MicrogrammaDMedExt;-inkscape-font-specification:MicrogrammaDMedExt"
           id="path94455" />
        <path
           d="m 99.863974,44.440204 h -0.268718 q -0.0034,-0.04479 -0.0034,-0.07062 0,-0.256659 0.192926,-0.349677 0.192925,-0.09302 0.723468,-0.09302 0.41685,0 0.59944,0.0379 0.18259,0.0379 0.28595,0.144694 0.0861,0.08613 0.11196,0.203261 0.0258,0.117134 0.0258,0.409967 v 0.861274 h -0.25666 l 0.005,-0.191203 h -0.0138 q -0.0965,0.134359 -0.23255,0.173978 -0.13435,0.0379 -0.50987,0.0379 -0.42891,0 -0.595997,-0.02067 -0.167087,-0.02067 -0.253214,-0.08613 -0.08613,-0.06201 -0.120579,-0.148139 -0.03273,-0.08613 -0.03273,-0.241157 0,-0.189481 0.04995,-0.291111 0.05168,-0.10163 0.172255,-0.151584 0.130913,-0.05684 0.611505,-0.05684 0.50298,0 0.65801,0.03101 0.15503,0.02928 0.23944,0.144695 h 0.0224 v -0.1757 q 0,-0.215319 -0.0775,-0.310059 -0.0689,-0.0844 -0.21015,-0.113688 -0.13953,-0.03101 -0.4582,-0.03101 -0.41858,0 -0.542606,0.04995 -0.122301,0.04823 -0.122301,0.213596 0,0.0086 0,0.02239 z m 0.661456,0.397909 q -0.31867,0 -0.44614,0.01206 -0.127466,0.01034 -0.180865,0.04134 -0.10163,0.06029 -0.10163,0.222208 0,0.160197 0.120578,0.217042 0.09819,0.04651 0.661457,0.04651 0.41169,0 0.54433,-0.0534 0.13263,-0.0534 0.13263,-0.217041 0,-0.158474 -0.14814,-0.213596 -0.14813,-0.05512 -0.58222,-0.05512 z"
           style="font-size:3.52778px;font-family:MicrogrammaDMedExt;-inkscape-font-specification:MicrogrammaDMedExt"
           id="path94457" />
        <path
           d="m 101.80184,43.949277 h 0.25839 v 0.246325 h 0.0189 q 0.0827,-0.156752 0.2515,-0.211874 0.17053,-0.05512 0.5736,-0.05512 0.3514,0 0.52021,0.03962 0.17054,0.0379 0.267,0.139527 0.0758,0.08096 0.10507,0.203261 0.031,0.120578 0.031,0.349677 v 0.923286 h -0.25838 v -0.813043 q 0,-0.218763 -0.019,-0.313504 -0.0172,-0.09646 -0.0724,-0.161919 -0.0654,-0.07579 -0.20153,-0.106798 -0.13436,-0.03273 -0.40308,-0.03273 -0.29972,0 -0.46681,0.04479 -0.16709,0.04306 -0.25149,0.142971 -0.0586,0.07235 -0.0775,0.163642 -0.0172,0.08957 -0.0172,0.320394 v 0.756199 h -0.25839 z"
           style="font-size:3.52778px;font-family:MicrogrammaDMedExt;-inkscape-font-specification:MicrogrammaDMedExt"
           id="path94459" />
        <path
           d="m 104.11006,43.949277 h 0.25838 v 1.634699 h -0.25838 z m 0,-0.71658 h 0.25838 v 0.306614 h -0.25838 z"
           style="font-size:3.52778px;font-family:MicrogrammaDMedExt;-inkscape-font-specification:MicrogrammaDMedExt"
           id="path94461" />
        <path
           d="m 104.91104,43.544478 h 0.25839 v 0.404799 h 1.14377 v 0.220487 h -1.14377 v 0.70969 q 0.003,0.232544 0.012,0.28422 0.009,0.05168 0.05,0.103353 0.0482,0.06029 0.14469,0.08613 0.0965,0.02412 0.2825,0.02412 0.17398,0 0.25321,-0.02412 0.0792,-0.02412 0.12403,-0.08785 0.0293,-0.04479 0.0379,-0.106798 0.0103,-0.06201 0.0103,-0.210151 v -0.103353 h 0.25666 v 0.103353 q 0,0.187758 -0.019,0.285943 -0.0172,0.09646 -0.0672,0.170532 -0.0724,0.106798 -0.21532,0.153307 -0.14297,0.04651 -0.40135,0.04651 -0.26527,0 -0.41514,-0.04306 -0.14813,-0.04306 -0.22048,-0.141249 -0.0534,-0.07235 -0.0724,-0.167087 -0.019,-0.09474 -0.019,-0.287666 v -0.795817 h -0.40135 v -0.220487 h 0.40135 z"
           style="font-size:3.52778px;font-family:MicrogrammaDMedExt;-inkscape-font-specification:MicrogrammaDMedExt"
           id="path94463" />
        <path
           d="m 106.84891,44.440204 h -0.26872 q -0.003,-0.04479 -0.003,-0.07062 0,-0.256659 0.19292,-0.349677 0.19293,-0.09302 0.72347,-0.09302 0.41686,0 0.59945,0.0379 0.18259,0.0379 0.28594,0.144694 0.0861,0.08613 0.11197,0.203261 0.0258,0.117134 0.0258,0.409967 v 0.861274 h -0.25666 l 0.005,-0.191203 h -0.0138 q -0.0965,0.134359 -0.23254,0.173978 -0.13436,0.0379 -0.50987,0.0379 -0.42892,0 -0.59601,-0.02067 -0.16708,-0.02067 -0.25321,-0.08613 -0.0861,-0.06201 -0.12058,-0.148139 -0.0327,-0.08613 -0.0327,-0.241157 0,-0.189481 0.05,-0.291111 0.0517,-0.10163 0.17225,-0.151584 0.13092,-0.05684 0.61151,-0.05684 0.50298,0 0.65801,0.03101 0.15503,0.02928 0.23943,0.144695 h 0.0224 v -0.1757 q 0,-0.215319 -0.0775,-0.310059 -0.0689,-0.0844 -0.21015,-0.113688 -0.13952,-0.03101 -0.4582,-0.03101 -0.41858,0 -0.5426,0.04995 -0.1223,0.04823 -0.1223,0.213596 0,0.0086 0,0.02239 z m 0.66146,0.397909 q -0.31867,0 -0.44614,0.01206 -0.12747,0.01034 -0.18087,0.04134 -0.10163,0.06029 -0.10163,0.222208 0,0.160197 0.12058,0.217042 0.0982,0.04651 0.66146,0.04651 0.41169,0 0.54432,-0.0534 0.13264,-0.0534 0.13264,-0.217041 0,-0.158474 -0.14814,-0.213596 -0.14814,-0.05512 -0.58222,-0.05512 z"
           style="font-size:3.52778px;font-family:MicrogrammaDMedExt;-inkscape-font-specification:MicrogrammaDMedExt"
           id="path94465" />
        <path
           d="m 108.78678,43.949277 h 0.25838 v 0.220487 h 0.0172 q 0.0603,-0.110243 0.18431,-0.173978 0.0741,-0.0379 0.19465,-0.05168 0.1223,-0.0155 0.36346,-0.0155 0.24115,0 0.35829,0.02756 0.11885,0.02584 0.20326,0.09646 0.16536,0.142972 0.16536,0.463366 v 0.16881 h -0.26527 v -0.117134 q 0,-0.136081 -0.019,-0.204983 -0.0172,-0.07062 -0.0637,-0.115411 -0.0982,-0.0913 -0.40825,-0.0913 -0.46681,0 -0.59944,0.122301 -0.13092,0.120579 -0.13092,0.551216 v 0.754476 h -0.25838 z"
           style="font-size:3.52778px;font-family:MicrogrammaDMedExt;-inkscape-font-specification:MicrogrammaDMedExt"
           id="path94467" />
        <path
           d="m 110.70742,43.949277 h 0.25838 v 0.246325 h 0.019 q 0.0827,-0.156752 0.25149,-0.211874 0.17054,-0.05512 0.57361,-0.05512 0.3514,0 0.52021,0.03962 0.17054,0.0379 0.267,0.139527 0.0758,0.08096 0.10507,0.203261 0.031,0.120578 0.031,0.349677 v 0.923286 h -0.25838 v -0.813043 q 0,-0.218763 -0.019,-0.313504 -0.0172,-0.09646 -0.0724,-0.161919 -0.0654,-0.07579 -0.20154,-0.106798 -0.13435,-0.03273 -0.40307,-0.03273 -0.29973,0 -0.46681,0.04479 -0.16709,0.04306 -0.2515,0.142971 -0.0586,0.07235 -0.0775,0.163642 -0.0172,0.08957 -0.0172,0.320394 v 0.756199 h -0.25838 z"
           style="font-size:3.52778px;font-family:MicrogrammaDMedExt;-inkscape-font-specification:MicrogrammaDMedExt"
           id="path94469" />
        <path
           d="m 112.79171,43.949277 h 0.30316 l 0.78893,1.424548 h 0.0345 l 0.73209,-1.424548 h 0.30316 l -0.79581,1.521011 q -0.14125,0.27044 -0.22393,0.385851 -0.081,0.115411 -0.17915,0.184313 -0.093,0.06373 -0.20326,0.08785 -0.11024,0.02412 -0.31006,0.02412 -0.0861,0 -0.14642,-0.0034 v -0.235989 q 0.062,0.0052 0.11886,0.0052 0.25666,0 0.36346,-0.06201 0.1068,-0.06201 0.22221,-0.275608 h -0.0879 z"
           style="font-size:3.52778px;font-family:MicrogrammaDMedExt;-inkscape-font-specification:MicrogrammaDMedExt"
           id="path94471" />
        <path
           d="m 116.75184,44.993142 h 0.26355 q -0.005,0.298001 -0.13608,0.434082 -0.0947,0.09991 -0.25666,0.139527 -0.16019,0.0379 -0.47714,0.0379 -0.42375,0 -0.62701,-0.03101 -0.20326,-0.03101 -0.31178,-0.111966 -0.23944,-0.180867 -0.23944,-0.690742 0,-0.360013 0.10336,-0.54088 0.10163,-0.1757 0.29283,-0.237712 0.1912,-0.06373 0.62701,-0.06373 0.39274,0 0.58394,0.04134 0.19121,0.03962 0.29111,0.141249 0.0706,0.07235 0.10163,0.16881 0.0327,0.09474 0.0396,0.253214 h -0.27044 q -0.005,-0.230821 -0.15158,-0.303168 -0.1447,-0.07407 -0.59428,-0.07407 -0.44097,0 -0.57706,0.08957 -0.0896,0.05857 -0.13091,0.18948 -0.0396,0.129191 -0.0396,0.354845 0,0.213596 0.0482,0.33762 0.05,0.122301 0.15503,0.1757 0.1447,0.07407 0.6494,0.07407 0.39791,0 0.52194,-0.07235 0.12574,-0.07407 0.13435,-0.311781 z"
           style="font-size:3.52778px;font-family:MicrogrammaDMedExt;-inkscape-font-specification:MicrogrammaDMedExt"
           id="path94473" />
        <path
           d="m 117.25827,43.232697 h 0.25838 v 0.95946 h 0.0207 q 0.0827,-0.153307 0.25666,-0.208429 0.17398,-0.05512 0.57361,-0.05512 0.33762,0 0.5116,0.03962 0.17398,0.03962 0.26872,0.137804 0.0827,0.08613 0.11024,0.211874 0.0276,0.125746 0.0276,0.416857 v 0.849216 h -0.25838 v -0.768257 q 0,-0.253214 -0.0172,-0.351399 -0.0172,-0.09819 -0.0741,-0.167088 -0.062,-0.07751 -0.19981,-0.10852 -0.13608,-0.03273 -0.40136,-0.03273 -0.298,0 -0.46508,0.04306 -0.16709,0.04134 -0.2515,0.136081 -0.0637,0.07235 -0.0827,0.160197 -0.019,0.08785 -0.019,0.320394 v 0.768257 h -0.25838 z"
           style="font-size:3.52778px;font-family:MicrogrammaDMedExt;-inkscape-font-specification:MicrogrammaDMedExt"
           id="path94475" />
      </g>
    </g>
  </g>
</svg>
