<?xml version="1.0" encoding="UTF-8" standalone="no"?>
<!-- Created with Inkscape (http://www.inkscape.org/) -->

<svg
   width="120"
   height="120"
   viewBox="0 0 31.750002 31.75"
   version="1.1"
   id="svg5"
   inkscape:version="1.1 (c68e22c387, 2021-05-23)"
   sodipodi:docname="kolo_exclamation.svg"
   xmlns:inkscape="http://www.inkscape.org/namespaces/inkscape"
   xmlns:sodipodi="http://sodipodi.sourceforge.net/DTD/sodipodi-0.dtd"
   xmlns="http://www.w3.org/2000/svg"
   xmlns:svg="http://www.w3.org/2000/svg">
  <sodipodi:namedview
     id="namedview7"
     pagecolor="#ffffff"
     bordercolor="#666666"
     borderopacity="1.0"
     inkscape:pageshadow="2"
     inkscape:pageopacity="0"
     inkscape:pagecheckerboard="0"
     inkscape:document-units="mm"
     showgrid="false"
     showguides="true"
     inkscape:guide-bbox="true"
     inkscape:snap-global="true"
     inkscape:snap-bbox="true"
     inkscape:snap-bbox-midpoints="false"
     inkscape:zoom="1.5518659"
     inkscape:cx="136.28755"
     inkscape:cy="100.20196"
     inkscape:window-width="1920"
     inkscape:window-height="1060"
     inkscape:window-x="0"
     inkscape:window-y="20"
     inkscape:window-maximized="1"
     inkscape:current-layer="layer1"
     inkscape:bbox-nodes="true"
     units="px">
    <sodipodi:guide
       position="-0.00018908288,385.40446"
       orientation="1,0"
       id="guide42755" />
    <sodipodi:guide
       position="83.390891,378.16827"
       orientation="1,0"
       id="guide42757" />
    <sodipodi:guide
       position="6.815047,365.25938"
       orientation="1,0"
       id="guide42964" />
    <sodipodi:guide
       position="76.575651,365.25938"
       orientation="1,0"
       id="guide42966" />
    <sodipodi:guide
       position="47.220111,285.42197"
       orientation="1,0"
       id="guide123940" />
  </sodipodi:namedview>
  <defs
     id="defs2" />
  <g
     inkscape:label="Layer 1"
     inkscape:groupmode="layer"
     id="layer1"
     transform="translate(-63.306641,-120.81055)">
    <rect
       style="fill:#006eff;fill-opacity:1;stroke-width:1.53749;stroke-linecap:round;stroke-opacity:0.8"
       id="rect30540"
       width="108.24857"
       height="64.091064"
       x="50.875713"
       y="23.219046"
       ry="4.1020513" />
    <rect
       style="fill:#006eff;fill-opacity:1;stroke-width:1.53749;stroke-linecap:round;stroke-opacity:0.8"
       id="rect30540-2"
       width="108.24857"
       height="64.091064"
       x="126.7509"
       y="155.36443"
       ry="4.1020513" />
    <g
       id="g42649"
       transform="translate(-3.473072)">
      <g
         aria-label="KOLO CHANEL"
         id="text1551"
         style="font-size:11.2889px;line-height:1.25;font-family:'Copious Sans';-inkscape-font-specification:'Copious Sans';text-align:center;text-anchor:middle;fill:#ffffff;stroke-width:1.503;stroke-linecap:round;stroke-opacity:0.8">
        <path
           d="m 67.63748,40.926888 h -0.857956 v -8.015119 h 0.857956 z m 3.443115,-8.015119 h 1.072445 l -3.352803,3.973693 3.352803,4.041426 h -1.072445 l -3.262492,-4.041426 z"
           id="path34285" />
        <path
           d="m 80.235882,39.865732 c -0.805275,0.812801 -1.77612,1.219201 -2.912536,1.219201 -1.136416,0 -2.107262,-0.410163 -2.912537,-1.23049 -0.812801,-0.805275 -1.219201,-1.783646 -1.219201,-2.935114 0,-1.158994 0.4064,-2.141128 1.219201,-2.946403 0.797749,-0.812801 1.768595,-1.219201 2.912537,-1.219201 1.158993,0 2.137365,0.4064 2.935114,1.219201 0.797749,0.805275 1.196623,1.794935 1.196623,2.968981 0,1.143941 -0.4064,2.11855 -1.219201,2.923825 z M 79.694015,34.54866 c -0.639705,-0.677334 -1.429928,-1.016001 -2.370669,-1.016001 -1.422401,0 -2.419588,0.662282 -2.991559,1.986846 -0.2032,0.474134 -0.3048,0.940742 -0.3048,1.399824 0,0.459082 0.1016,0.933216 0.3048,1.422401 0.579497,1.309513 1.576683,1.964269 2.991559,1.964269 0.722489,0 1.354668,-0.195674 1.896535,-0.587023 0.526815,-0.376297 0.918164,-0.906875 1.174046,-1.591735 0.150519,-0.383823 0.225778,-0.775171 0.225778,-1.174046 0,-0.948267 -0.308563,-1.749779 -0.92569,-2.404535 z"
           id="path34287"
           sodipodi:nodetypes="cscscscsccscscsccsc" />
        <path
           d="m 83.10326,40.926888 v -8.015119 h 0.857957 v 7.236185 h 4.763916 v 0.778934 z"
           id="path34289" />
        <path
           d="m 97.361146,39.865732 c -0.805275,0.812801 -1.77612,1.219201 -2.912536,1.219201 -1.136416,0 -2.107261,-0.410163 -2.912536,-1.23049 -0.812801,-0.805275 -1.219202,-1.783646 -1.219202,-2.935114 0,-1.158994 0.406401,-2.141128 1.219202,-2.946403 0.797749,-0.812801 1.768594,-1.219201 2.912536,-1.219201 1.158994,0 2.137365,0.4064 2.935114,1.219201 0.797749,0.805275 1.196623,1.794935 1.196623,2.968981 0,1.143941 -0.4064,2.11855 -1.219201,2.923825 z M 96.819279,34.54866 c -0.639705,-0.677334 -1.429928,-1.016001 -2.370669,-1.016001 -1.422401,0 -2.419588,0.662282 -2.991559,1.986846 -0.2032,0.474134 -0.3048,0.940742 -0.3048,1.399824 0,0.459082 0.1016,0.933216 0.3048,1.422401 0.579497,1.309513 1.576684,1.964269 2.991559,1.964269 0.722489,0 1.354668,-0.195674 1.896535,-0.587023 0.526815,-0.376297 0.918164,-0.906875 1.174046,-1.591735 0.150519,-0.383823 0.225778,-0.775171 0.225778,-1.174046 0,-0.948267 -0.308563,-1.749779 -0.92569,-2.404535 z"
           id="path34291"
           sodipodi:nodetypes="cscscscsccscscsccsc" />
        <path
           id="path34293"
           sodipodi:type="inkscape:offset"
           inkscape:radius="0"
           inkscape:original="M 107.35156 32.753906 C 106.77207 32.753906 106.2308 32.863779 105.72656 33.082031 C 105.22232 33.300283 104.78254 33.59636 104.40625 33.972656 C 104.02995 34.348953 103.72773 34.792924 103.50195 35.304688 C 103.2837 35.808925 103.17578 36.347951 103.17578 36.919922 C 103.17578 37.506945 103.2837 38.052403 103.50195 38.556641 C 103.72773 39.060879 104.02995 39.500656 104.40625 39.876953 C 104.78254 40.25325 105.22232 40.553519 105.72656 40.779297 C 106.2308 40.997549 106.77207 41.107422 107.35156 41.107422 C 107.78807 41.107422 108.2066 41.043956 108.60547 40.916016 C 109.01187 40.788074 109.3798 40.606351 109.71094 40.373047 C 110.0496 40.132217 110.34764 39.850958 110.60352 39.527344 C 110.86693 39.203728 111.0741 38.85062 111.22461 38.466797 L 110.26367 38.466797 C 110.12821 38.730205 109.95487 38.977634 109.74414 39.210938 C 109.54094 39.436716 109.31672 39.629065 109.06836 39.787109 C 108.82001 39.937628 108.54937 40.053933 108.25586 40.136719 C 107.96235 40.219504 107.66013 40.261719 107.35156 40.261719 C 106.89248 40.261719 106.46333 40.175049 106.06445 40.001953 C 105.66557 39.828856 105.31666 39.583667 105.01562 39.267578 C 104.71459 38.951489 104.47778 38.594186 104.30469 38.195312 C 104.13911 37.788912 104.05469 37.351374 104.05469 36.884766 C 104.05469 36.43321 104.13911 36.00825 104.30469 35.609375 C 104.47778 35.202975 104.71458 34.845673 105.01562 34.537109 C 105.31666 34.228546 105.66557 33.98755 106.06445 33.814453 C 106.46333 33.633831 106.89248 33.544922 107.35156 33.544922 C 107.6526 33.544922 107.94644 33.589377 108.23242 33.679688 C 108.52593 33.762473 108.79656 33.878778 109.04492 34.029297 C 109.29328 34.17229 109.51946 34.35206 109.72266 34.570312 C 109.92586 34.788564 110.09919 35.023129 110.24219 35.271484 L 111.17969 35.271484 C 111.02164 34.895188 110.81028 34.556897 110.54688 34.255859 C 110.291 33.947296 109.99716 33.683096 109.66602 33.464844 C 109.33487 33.239066 108.96919 33.065727 108.57031 32.945312 C 108.17897 32.817372 107.77302 32.753906 107.35156 32.753906 z "
           d="m 107.35156,32.753906 c -0.57949,0 -1.12076,0.109873 -1.625,0.328125 -0.50424,0.218252 -0.94402,0.514329 -1.32031,0.890625 -0.3763,0.376297 -0.67852,0.820268 -0.9043,1.332032 -0.21825,0.504237 -0.32617,1.043263 -0.32617,1.615234 0,0.587023 0.10792,1.132481 0.32617,1.636719 0.22578,0.504238 0.528,0.944015 0.9043,1.320312 0.37629,0.376297 0.81607,0.676566 1.32031,0.902344 0.50424,0.218252 1.04551,0.328125 1.625,0.328125 0.43651,0 0.85504,-0.06347 1.25391,-0.191406 0.4064,-0.127942 0.77433,-0.309665 1.10547,-0.542969 0.33866,-0.24083 0.6367,-0.522089 0.89258,-0.845703 0.26341,-0.323616 0.47058,-0.676724 0.62109,-1.060547 h -0.96094 c -0.13546,0.263408 -0.3088,0.510837 -0.51953,0.744141 -0.2032,0.225778 -0.42742,0.418127 -0.67578,0.576171 -0.24835,0.150519 -0.51899,0.266824 -0.8125,0.34961 -0.29351,0.08279 -0.59573,0.125 -0.9043,0.125 -0.45908,0 -0.88823,-0.08667 -1.28711,-0.259766 -0.39888,-0.173097 -0.74779,-0.418286 -1.04883,-0.734375 -0.30103,-0.316089 -0.53784,-0.673392 -0.71093,-1.072266 -0.16558,-0.4064 -0.25,-0.843938 -0.25,-1.310546 0,-0.451556 0.0844,-0.876516 0.25,-1.275391 0.17309,-0.4064 0.40989,-0.763702 0.71093,-1.072266 0.30104,-0.308563 0.64995,-0.549559 1.04883,-0.722656 0.39888,-0.180622 0.82803,-0.269531 1.28711,-0.269531 0.30104,0 0.59488,0.04445 0.88086,0.134766 0.29351,0.08279 0.56414,0.19909 0.8125,0.349609 0.24836,0.142993 0.47454,0.322763 0.67774,0.541015 0.2032,0.218252 0.37653,0.452817 0.51953,0.701172 h 0.9375 c -0.15805,-0.376296 -0.36941,-0.714587 -0.63281,-1.015625 -0.25588,-0.308563 -0.54972,-0.572763 -0.88086,-0.791015 -0.33115,-0.225778 -0.69683,-0.399117 -1.09571,-0.519532 -0.39134,-0.12794 -0.79729,-0.191406 -1.21875,-0.191406 z" />
        <path
           d="m 117.96338,40.926888 v -4.075293 l -4.3688,-4e-6 v 4.075297 h -0.85796 v -8.015119 h 0.85796 v 3.115732 l 4.3688,5e-6 v -3.115737 h 0.85796 v 8.015119 z"
           id="path34295"
           sodipodi:nodetypes="ccccccccccccc" />
        <path
           d="m 126.63325,40.926888 -1.33718,-3.177237 h -2.87877 l -1.36076,3.177237 h -0.90312 l 3.28507,-8.00383 h 0.85796 l 3.29636,8.00383 z m -2.78836,-6.87494 -1.15496,2.991553 2.32901,6e-6 z"
           id="path34297"
           sodipodi:nodetypes="ccccccccccccc" />
        <path
           d="m 134.12908,40.926888 -4.41396,-6.829784 v 6.829784 h -0.88053 v -8.015119 h 1.07244 l 4.34623,6.728185 v -6.728185 h 0.88053 v 8.015119 z"
           id="path34299" />
        <path
           d="m 137.07547,40.926888 v -8.015119 h 5.7009 v 0.778934 h -4.82036 v 2.336798 h 3.97369 v 0.869246 h -3.97369 v 3.251207 h 4.82036 v 0.778934 z"
           id="path34301"
           sodipodi:nodetypes="ccccccccccccc" />
        <path
           d="m 144.54873,40.926888 v -8.015119 h 0.85796 v 7.236185 h 4.76392 v 0.778934 z"
           id="path34303" />
        <circle
           style="fill:#ffffff;fill-opacity:1;stroke-width:1.503;stroke-linecap:round;stroke-opacity:0.8"
           id="path93572"
           cx="86.443367"
           cy="36.919327"
           r="0.58807003" />
      </g>
      <text
         xml:space="preserve"
         style="font-style:normal;font-variant:normal;font-weight:normal;font-stretch:normal;font-size:11.2889px;line-height:1.25;font-family:'Copious Sans';-inkscape-font-specification:'Copious Sans';text-align:center;text-anchor:middle;fill:#ffffff;fill-opacity:1;stroke-width:1.503;stroke-linecap:round;stroke-opacity:0.8"
         x="93.006508"
         y="31.472851"
         id="text37124"><tspan
           sodipodi:role="line"
           id="tspan37122"
           style="stroke-width:1.503"
           x="93.006508"
           y="31.472851" /><tspan
           sodipodi:role="line"
           style="font-style:normal;font-variant:normal;font-weight:normal;font-stretch:normal;font-size:3.52778px;font-family:MicrogrammaDMedExt;-inkscape-font-specification:MicrogrammaDMedExt;stroke-width:1.503"
           x="93.006508"
           y="45.583977"
           id="tspan37126">Portal anonsów sanitarnych</tspan><tspan
           sodipodi:role="line"
           style="font-style:normal;font-variant:normal;font-weight:normal;font-stretch:normal;font-size:3.52778px;font-family:MicrogrammaDMedExt;-inkscape-font-specification:MicrogrammaDMedExt;stroke-width:1.503"
           x="93.006508"
           y="59.695103"
           id="tspan37128" /></text>
    </g>
    <rect
       style="fill:#f7e2ac;fill-opacity:1;stroke-width:1.75707;stroke-linecap:round;stroke-opacity:0.8"
       id="rect109509"
       width="69.760605"
       height="25.5221"
       x="70.121689"
       y="53.056839"
       ry="0.66953272" />
    <g
       id="g119046"
       transform="translate(-4.3308481,0.24113655)">
      <path
         id="path117863"
         style="fill:#000000;fill-opacity:1;stroke-width:5.68063;stroke-linecap:round;stroke-opacity:0.8"
         d="m 325.51953,214.61328 c -4.76337,2.1e-4 -8.625,3.38646 -8.625,8.625 0,5.23854 3.57112,31.68528 4.09375,34.75781 0.52263,3.07253 2.02804,4.53299 4.53125,4.53321 2.50321,-2.2e-4 4.00862,-1.46068 4.53125,-4.53321 0.52263,-3.07253 4.09375,-29.51927 4.09375,-34.75781 0,-5.23854 -3.86163,-8.62479 -8.625,-8.625 z"
         transform="scale(0.26458333)" />
      <circle
         style="fill:#000000;fill-opacity:1;stroke-width:0.789656;stroke-linecap:round;stroke-opacity:0.8"
         id="circle117947"
         cx="86.12709"
         cy="71.827942"
         r="1.199001" />
    </g>
    <text
       xml:space="preserve"
       style="font-size:3.52777px;line-height:1.25;font-family:sans-serif;-inkscape-font-specification:sans-serif;text-align:center;text-anchor:middle;fill:#000000;fill-opacity:1;stroke-width:1.503;stroke-linecap:round;stroke-opacity:0.8"
       x="111.59278"
       y="66.897751"
       id="text119952"><tspan
         sodipodi:role="line"
         id="tspan119950"
         style="stroke-width:1.503"
         x="111.59278"
         y="66.897751">An error has occured</tspan></text>
    <path
       id="rect123932"
       style="fill:#ffffff;fill-opacity:1;stroke-width:3.9275;stroke-linecap:round;stroke-opacity:0.8"
       d="m 428.29102,458.01758 c -5.84629,0 -10.55274,4.70644 -10.55274,10.55273 0.0511,31.38781 0,62.45508 0,93.57617 0,3.51328 2.82852,6.3418 6.3418,6.3418 h 35.95117 c 3.51328,0 6.3418,-2.82852 6.3418,-6.3418 v -12.44921 h 10.70117 c 11.12772,0 20.08594,-6.41604 20.08594,-14.38672 -0.0188,-5.20243 0,-10.49602 0,-15.76563 h -51.0293 v -50.97461 c 0,-5.84629 -4.70645,-10.55273 -10.55274,-10.55273 z m 23.13867,53.60547 c -1.53014,0 -2.76172,1.23158 -2.76172,2.76172 v 0.45507 c 0,1.53014 1.23158,2.76172 2.76172,2.76172 h 50.0332 c 1.53014,0 2.76172,-1.23158 2.76172,-2.76172 v -0.45507 c 0,-1.53014 -1.23158,-2.76172 -2.76172,-2.76172 z"
       sodipodi:nodetypes="sccssscscccssssssssssss"
       transform="scale(0.26458333)" />
    <path
       style="color:#000000;fill:#ffffff;-inkscape-stroke:none"
       d="m 68.831218,121.81837 c -2.738531,0 -4.980468,2.24193 -4.980468,4.98047 v 19.77343 c 0,2.73854 2.241933,4.98046 4.980468,4.98046 h 12.589844 c 2.738536,0 4.980469,-2.24192 4.980469,-4.98046 v -4.72071 h -2.398438 v 4.72071 c 0,1.45081 -1.131219,2.58008 -2.582031,2.58008 H 68.831218 c -1.45081,0 -2.582031,-1.12926 -2.582031,-2.58008 v -19.77344 c 0,-1.45081 1.131217,-2.58204 2.582031,-2.58204 h 12.589844 c 1.450816,0 2.582031,1.13122 2.582031,2.58204 v 5.90821 h 2.398438 v -5.9082 c 0,-2.73854 -2.241937,-4.98047 -4.980469,-4.98047 z"
       id="rect128247" />
    <path
       id="rect129006"
       style="fill:#ffffff;fill-opacity:1;stroke:none;stroke-width:2.24726;stroke-linecap:butt;stroke-miterlimit:4;stroke-dasharray:none;stroke-opacity:1"
       d="m 88.444168,131.40553 v 3.22928 H 74.673434 v 5.2901 h 13.770734 v 3.22926 l 6.068364,-5.87457 z" />
  </g>
</svg>
