<?xml version="1.0" encoding="UTF-8" standalone="no"?>
<!-- Created with Inkscape (http://www.inkscape.org/) -->

<svg
   width="120"
   height="120"
   viewBox="0 0 31.75 31.749999"
   version="1.1"
   id="svg5"
   inkscape:version="1.1 (c68e22c387, 2021-05-23)"
   sodipodi:docname="kolo_exclamation.svg"
   xmlns:inkscape="http://www.inkscape.org/namespaces/inkscape"
   xmlns:sodipodi="http://sodipodi.sourceforge.net/DTD/sodipodi-0.dtd"
   xmlns="http://www.w3.org/2000/svg"
   xmlns:svg="http://www.w3.org/2000/svg">
  <sodipodi:namedview
     id="namedview7"
     pagecolor="#ffffff"
     bordercolor="#666666"
     borderopacity="1.0"
     inkscape:pageshadow="2"
     inkscape:pageopacity="0"
     inkscape:pagecheckerboard="0"
     inkscape:document-units="mm"
     showgrid="false"
     showguides="true"
     inkscape:guide-bbox="true"
     inkscape:snap-global="true"
     inkscape:snap-bbox="true"
     inkscape:snap-bbox-midpoints="false"
     inkscape:zoom="0.77593295"
     inkscape:cx="168.18464"
     inkscape:cy="-12.243326"
     inkscape:window-width="1920"
     inkscape:window-height="1060"
     inkscape:window-x="0"
     inkscape:window-y="20"
     inkscape:window-maximized="1"
     inkscape:current-layer="layer1"
     inkscape:bbox-nodes="true"
     units="px">
    <sodipodi:guide
       position="-47.220135,398.2569"
       orientation="1,0"
       id="guide42755" />
    <sodipodi:guide
       position="36.170941,391.02071"
       orientation="1,0"
       id="guide42757" />
    <sodipodi:guide
       position="-40.404899,378.11182"
       orientation="1,0"
       id="guide42964" />
    <sodipodi:guide
       position="29.355701,378.11182"
       orientation="1,0"
       id="guide42966" />
    <sodipodi:guide
       position="0.00016451912,17.518272"
       orientation="1,0"
       id="guide123940" />
  </sodipodi:namedview>
  <defs
     id="defs2" />
  <g
     inkscape:label="Layer 1"
     inkscape:groupmode="layer"
     id="layer1"
     transform="translate(-110.52659,-121.18382)">
    <path
       id="rect123932"
       style="fill:#ffffff;fill-opacity:1;stroke-width:1.03915;stroke-linecap:round;stroke-opacity:0.8"
       d="m 117.75225,122.44447 c -1.54683,0 -2.79208,1.24524 -2.79208,2.79207 0.0135,8.30469 0,16.52458 0,24.7587 0,0.92955 0.74838,1.67793 1.67793,1.67793 h 9.51208 c 0.92956,0 1.67794,-0.74838 1.67794,-1.67793 v -3.29386 h 2.83135 c 2.94421,0 5.3144,-1.69757 5.3144,-3.80648 -0.005,-1.37648 0,-2.77707 0,-4.17132 h -13.5015 v -13.48704 c 0,-1.54683 -1.24525,-2.79207 -2.79208,-2.79207 z m 6.1221,14.18311 c -0.40484,0 -0.7307,0.32586 -0.7307,0.73071 v 0.1204 c 0,0.40485 0.32586,0.7307 0.7307,0.7307 h 13.23796 c 0.40485,0 0.7307,-0.32585 0.7307,-0.7307 v -0.1204 c 0,-0.40485 -0.32585,-0.73071 -0.7307,-0.73071 z"
       sodipodi:nodetypes="sccssscscccssssssssssss" />
  </g>
</svg>
